<?xml version="1.0" encoding="UTF-8"?>
<svg width="1200pt" height="1200pt" version="1.1" viewBox="0 0 1200 1200" xmlns="http://www.w3.org/2000/svg">
 <path d="m600 1080.7-140.2-147.8h-209.01c-83.203 0-150.88-67.691-150.88-150.91l-0.003906-511.69c0-83.242 67.68-150.93 150.88-150.93h698.39c83.23 0 150.93 67.691 150.93 150.93v511.68c0 83.219-67.707 150.91-150.93 150.91h-208.97zm-349.21-936.07c-69.258 0-125.62 56.375-125.62 125.67v511.68c0 69.273 56.363 125.64 125.62 125.64h219.88l129.33 136.36 129.34-136.36h219.83c69.297 0 125.67-56.375 125.67-125.64l-0.003907-511.68c0-69.297-56.375-125.67-125.67-125.67zm349.21 627.95-222.88-222.87c-29.293-29.281-45.438-68.234-45.438-109.69 0-41.418 16.129-80.375 45.438-109.67 29.293-29.305 68.25-45.449 109.69-45.449 41.445 0 80.387 16.129 109.68 45.449l3.5117 3.5 3.5234-3.5234c29.281-29.281 68.234-45.422 109.68-45.422s80.375 16.129 109.68 45.449c29.293 29.281 45.438 68.234 45.438 109.67 0 41.445-16.129 80.398-45.438 109.69zm-113.19-462.4c-34.688 0-67.301 13.516-91.832 38.047s-38.035 57.133-38.035 91.805c0 34.711 13.504 67.301 38.035 91.832l205.01 205.01 205.01-205.01c24.52-24.52 38.035-57.105 38.035-91.832 0-34.66-13.504-67.277-38.035-91.805-24.531-24.531-57.121-38.047-91.82-38.047-34.699 0-67.289 13.516-91.82 38.047l-21.359 21.359-21.371-21.359c-24.531-24.531-57.133-38.047-91.82-38.047z"/>
</svg>
