<?xml version="1.0" encoding="UTF-8"?>
<svg width="1200pt" height="1200pt" version="1.1" viewBox="0 0 1200 1200" xmlns="http://www.w3.org/2000/svg">
 <path d="m250.84 924.95h218l131.16 138.28 131.17-138.28h218c76.359 0 138.25-61.906 138.25-138.28l-0.003907-511.64c0-76.359-61.895-138.25-138.25-138.25h-698.32c-76.383 0-138.25 61.895-138.25 138.25v511.63c0 76.371 61.883 138.29 138.25 138.29zm135.98-588.47c58.484-58.496 151.69-60.848 213.18-7.375 61.477-53.469 154.7-51.121 213.2 7.375 58.344 58.359 60.848 151.3 7.7305 212.78l-220.93 221.75-220.94-221.76c-53.105-61.477-50.605-154.41 7.7539-212.77z"/>
</svg>
